
        <svg xmlns="http://www.w3.org/2000/svg" xmlns:xlink="http://www.w3.org/1999/xlink" version="1.1" width="3162.2002820874472" height="701.1900878962183" viewBox="0 0 3162.2002820874472 701.1900878962183">
			
			<g transform="scale(8.110014104372356) translate(10, 10)">
				<defs id="SvgjsDefs1031"/><g id="SvgjsG1032" featureKey="symbolFeature-0" transform="matrix(0.08922811672812771,0,0,0.08922811672812771,-0.6253998544900474,20.365855785645678)" fill="#fff"><g xmlns="http://www.w3.org/2000/svg"><polygon points="248.189,155.77 57.009,155.77 94.009,192.77 285.189,192.77  "/><polygon points="107.009,205.77 144.009,242.77 335.199,242.77 298.199,205.77  "/><polygon points="614.765,105.77 614.414,105.77 564.685,105.77 433.372,237.074 302.059,105.77 252.329,105.77 251.979,105.77    7.009,105.77 44.009,142.77 288.979,142.77 433.099,286.89 433.372,286.617 433.645,286.89 577.765,142.77 822.733,142.77    859.733,105.77  "/><polygon points="581.554,192.77 772.733,192.77 809.733,155.77 618.554,155.77  "/><polygon points="531.544,242.77 722.733,242.77 759.733,205.77 568.544,205.77  "/><path d="M325.302,71.599c0,29.897,24.322,54.22,54.218,54.22c11.13,0,21.702-3.305,30.772-9.589l23.017,24.114l23.415-24.529   c9.124,6.472,20.14,10.004,31.362,10.004c29.897,0,54.221-24.323,54.221-54.22c0-12.127-4.07-23.857-11.521-33.372l29.705-31.12   c0,0-94.786,22.387-127.176,30.714C401.203,29.566,306.14,7.107,306.14,7.107l30.245,31.689   C329.217,48.207,325.302,59.736,325.302,71.599z M515.371,54.375c3.237,5.127,4.988,11.115,4.988,17.223   c0,17.798-14.478,32.278-32.273,32.278c-5.669,0-11.112-1.445-15.949-4.208L515.371,54.375z M351.854,55.003l42.964,45.015   c-4.682,2.534-9.9,3.858-15.298,3.858c-17.794,0-32.271-14.48-32.271-32.278C347.249,65.667,348.831,60.001,351.854,55.003z"/></g></g><g id="SvgjsG1033" featureKey="nameFeature-0" transform="matrix(1.6681671654634778,0,0,1.6681671654634778,94.79892078630579,-16.548215226892392)" fill="#fff"><path d="M10.28 11.719999999999999 l-9.56 0 l0 -1.32 c0 -0.24 0.2 -0.4 0.44 -0.4 l20.84 0 l0 1.28 c0 0.24 -0.2 0.44 -0.44 0.44 l-9.2 0 l0 27.84 c0 0.24 -0.2 0.44 -0.44 0.44 l-1.64 0 l0 -28.28 z M30.04 40 c-2.76 0 -4.96 -1.8 -4.96 -4.84 l0 -10.36 c0 -3 2.12 -4.8 4.84 -4.8 l6.32 0 c2.72 0 4.84 1.8 4.84 4.8 l0 5.44 c0 0.28 -0.2 0.48 -0.44 0.48 l-12.84 0 c-0.36 0 -0.68 -0.2 -0.88 -0.48 l-0.04 0 l0 4.88 c0 1.76 1.4 3.16 3.16 3.16 l10.28 0 c0.24 0 0.44 0.2 0.44 0.44 l0 1.28 l-10.72 0 z M36.24 21.64 l-6.32 0 c-1.72 0 -3.04 1.44 -3.04 3.2 l0 3.76 c0 0.24 0.16 0.4 0.44 0.44 l11.96 0 l0 -4.2 c0 -1.76 -1.32 -3.2 -3.04 -3.2 z M45.64 35 l0 -9.96 c0 -2.76 2.2 -5 4.96 -5 l8.2 0 l0 1.2 c0 0.24 -0.16 0.44 -0.4 0.44 l-7.8 0 c-1.76 0 -3.16 1.44 -3.16 3.2 l0 10.28 c0 1.76 1.4 3.16 3.16 3.16 l7.8 0 c0.24 0 0.4 0.2 0.4 0.44 l0 1.24 l-8.2 0 c-2.76 0 -4.96 -2.24 -4.96 -5 z M66.36 20 l7.32 0 c2.76 0 5 2.24 5 5 l0 15 l-1.28 0 c-0.32 0 -0.52 -0.24 -0.52 -0.52 l0 -14.64 c0 -1.76 -1.44 -3.16 -3.2 -3.16 l-7.76 0 c-0.4 0 -0.72 0.32 -0.72 0.68 l0 17.12 c0 0.28 -0.2 0.52 -0.52 0.52 l-1.32 0 l0 -30.04 l1.4 0 c0.24 0 0.44 0.2 0.44 0.44 l0 10.36 c0.04 -0.44 0.56 -0.76 1.16 -0.76 z M85.08000000000001 15.920000000000002 l0 4.8 c0 0.24 0.2 0.52 0.4 0.56 l18 5.96 c0.6 0.2 1.12 0.88 1.12 1.52 l0 4.96 c0 3.48 -2.84 6.28 -6.28 6.28 l-15.68 0 l0 -1.28 c0 -0.24 0.2 -0.44 0.44 -0.44 l15.24 0 c2.32 0 4.2 -1.88 4.2 -4.2 l0 -4.84 c0 -0.24 -0.2 -0.48 -0.44 -0.56 l-18 -5.96 c-0.6 -0.2 -1.08 -0.88 -1.08 -1.52 l0 -4.92 c0 -3.48 2.8 -6.28 6.28 -6.28 l14.44 0 l0 1.28 c0 0.24 -0.2 0.44 -0.44 0.44 l-14 0 c-2.32 0 -4.2 1.88 -4.2 4.2 z M108.8 39.56 l0 -19.56 l1.36 0 c0.24 0 0.44 0.16 0.44 0.4 l0 19.6 l-1.36 0 c-0.24 0 -0.44 -0.2 -0.44 -0.44 z M108.8 13 l0 -1.88 l1.4 0 c0.24 0 0.4 0.2 0.4 0.4 l0 1.88 l-1.4 0 c-0.24 0 -0.4 -0.16 -0.4 -0.4 z M130.72 19.96 c0.24 0 0.44 0.2 0.44 0.48 l0 24.28 c0 2.8 -2.2 5.04 -4.96 5.04 l-9.4 0 l0 -1.32 c0 -0.24 0.2 -0.44 0.4 -0.44 l9 0 c1.76 0 3.16 -1.32 3.16 -3.08 l0 -5.52 c-0.16 0.36 -0.56 0.56 -1.08 0.56 l-7.36 0.04 c-2.76 0 -4.96 -2.28 -4.96 -5.04 l0 -9.96 c0 -2.76 2.2 -5.04 4.96 -5.04 l9.8 0 z M120.92 38.32 l7.72 0 c0.4 0 0.72 -0.32 0.72 -0.72 l0 -15.96 l-8.44 0 c-1.76 0 -3.16 1.44 -3.16 3.2 l0 10.28 c0 1.76 1.4 3.2 3.16 3.2 z M138.96 20 l7.32 0 c2.76 0 5 2.24 5 5 l0 15 l-1.28 0 c-0.32 0 -0.52 -0.24 -0.52 -0.52 l0 -14.64 c0 -1.76 -1.44 -3.16 -3.2 -3.16 l-7.76 0 c-0.4 0 -0.72 0.32 -0.72 0.68 l0 17.12 c0 0.28 -0.2 0.52 -0.52 0.52 l-1.32 0 l0 -30.04 l1.4 0 c0.24 0 0.44 0.2 0.44 0.44 l0 10.36 c0.04 -0.44 0.56 -0.76 1.16 -0.76 z M164.52 38.32 c0.2 0 0.4 0.2 0.4 0.44 l0 1.24 l-3.96 0 c-2.76 0 -4.96 -2.24 -4.96 -5.04 l0 -25.04 l1.36 0 c0.24 0 0.44 0.2 0.44 0.44 l0 10.44 c0.04 -0.44 0.56 -0.76 1.12 -0.76 l4.88 0 l0 1.2 c0 0.24 -0.2 0.44 -0.44 0.44 l-5.56 0 l0 13.48 c0 1.72 1.4 3.16 3.16 3.16 l3.56 0 z"/></g>
			</g>
		</svg>
	